<svg xmlns="http://www.w3.org/2000/svg" xmlns:xlink="http://www.w3.org/1999/xlink" version="1.1" id="Layer_1" x="0px" y="0px" viewBox="0 0 100 100" enable-background="new 0 0 100 100" xml:space="preserve" height="100px" width="100px">
<path fill="#000000" d="M67.4,56.9c-1.8-0.5-3.9,1.3-4.6,3.9c-0.8,2.7,0.1,5.3,1.9,5.8c1.8,0.5,3.9-1.3,4.6-3.9  C70.1,60,69.2,57.4,67.4,56.9z M64.1,63c-0.8,0-1.4-0.6-1.4-1.4c0-0.8,0.6-1.4,1.4-1.4c0.8,0,1.4,0.6,1.4,1.4  C65.5,62.4,64.9,63,64.1,63z"/>
<path fill="#000000" d="M29.6,47.2c-1.8-0.5-3.9,1.3-4.6,3.9c-0.8,2.7,0.1,5.3,1.9,5.8c1.8,0.5,3.9-1.3,4.6-3.9  C32.2,50.3,31.4,47.7,29.6,47.2z M26.2,53.2c-0.8,0-1.4-0.6-1.4-1.4c0-0.8,0.6-1.4,1.4-1.4c0.8,0,1.4,0.6,1.4,1.4  C27.6,52.6,27,53.2,26.2,53.2z"/>
<path fill="#000000" d="M94.5,50.1L94.5,50.1c0.2-3.4-4.3-8.3-11.4-10.5L26.5,21.2c-2.5-0.5-4.7-0.8-6.5-0.8c-4.2,0-6.5,1.3-7.3,3.2  c0,0,0,0,0,0c-1.5,1.8-1.6,5.7-1.6,5.7c-0.3,1.2,0.2,2.8,0.2,2.8l0,0c0.4,1.2,1.2,2.5,2.2,3.7c-2.6,3.3-4.4,7.6-5.2,11.3  c-1.6,7.1-0.6,13.6,2.5,17c5.9,6.3,45.9,18.9,60.3,18.9c0,0,0,0,0,0c2.2,0,3.7-0.3,4.7-0.8c5.2-3,10.6-14.3,11.3-23.1  c1.3,0,2.3-0.1,3.2-0.4l0,0c0,0,0.5-0.1,1-0.4c0,0,0.1,0,0.1,0c0.1,0,0.1-0.1,0.2-0.1c0.2-0.1,0.3-0.2,0.5-0.3  c0.6-0.4,1.2-1,1.4-1.8c0,0,0,0,0,0c0,0,0-0.1,0-0.1C93.6,56,94.7,51.5,94.5,50.1z M49.2,65.2c0.5,0.8,1.4,2.2-0.7,4.5c0,0,0,0,0,0  c-0.7-0.7-2-1.3-2.9-1.3c-1,0-2.4,1-2.9,2.1c0,0,0,0-0.1,0c-2.1-1.1-3.1-3.7-2.1-5.9c0.2-0.4,0.1-0.6,0.9-0.9  C42.2,63.5,48.7,64.4,49.2,65.2z M14.3,24.7c0.4-2.2,4.1-2.4,5.7-2.4c1.7,0,3.7,0.2,6,0.7l19.4,6.3l-7.2,10.9  c-5.1-1.7-9.9-3.5-14-5.2c-3.2-1.3-6-3.3-7.8-5.4C14.8,27.8,14.1,26,14.3,24.7z M14,36.4C14,36.4,13.9,36.3,14,36.4  C13.9,36.3,14,36.4,14,36.4z M12.6,62.6c-2.6-2.8-3.4-8.7-2-14.9c0.8-3.4,2.3-7.1,4.6-10.1c1.8,1.6,4.1,3.1,6.9,4.2  c4,1.7,8.6,3.4,13.5,5.1l-7.1,24.8l0.3-1.2C20.9,67.7,14.6,64.7,12.6,62.6z M74.7,80.2c-0.3,0.2-1.2,0.5-3.5,0.5h0  c-3.8,0-9.4-0.9-15.8-2.4l6.7-23.6c9,2.3,17.2,3.9,22.6,4.3c0,0,0,0,0,0C84.2,66.4,79.4,77.4,74.7,80.2z M86,59.1  c-0.3,0-0.6,0-0.8-0.1C85.4,59.1,85.7,59.1,86,59.1c0.2,0,0.4,0,0.6,0C86.4,59.1,86.2,59.1,86,59.1z M92.6,50.2  c-0.2,1.2-1.9,1.8-4.7,1.8c-0.3,0-0.6,0-1,0c-5.2-0.3-13.6-1.9-23-4.2l0-12.4l18.5,6l0,0l0,0c3.1,1,5.9,2.6,7.9,4.5  C92.2,47.7,92.8,49.3,92.6,50.2z M93.1,52.7C93.1,52.7,93.1,52.7,93.1,52.7C93.1,52.7,93.1,52.7,93.1,52.7L93.1,52.7z"/>
</svg>