<svg xmlns="http://www.w3.org/2000/svg" xmlns:xlink="http://www.w3.org/1999/xlink" version="1.1" id="Layer_1" x="0px" y="0px" viewBox="0 0 100 100" enable-background="new 0 0 100 100" xml:space="preserve" height="100px" width="100px">
<path fill="#000000" d="M57.6,76.4C60,76,62,76.2,62.7,77c0.4-1.6,0.5-3.5,0.1-5.5c0-0.2-0.1-0.5-0.2-0.7l-12,2.2  c0,0.2,0.1,0.5,0.1,0.7c0.4,2,1.2,3.8,2.2,5.2C53.2,77.9,55.1,76.9,57.6,76.4z"/>
<path fill="#000000" d="M20.2,60.3l2.5,9.6l1.1,10.8c0,0,1.5,4.2,18.6,2.9c0,0-11.2-3.4-13.2-5.8c-1.9-2.2-2.3,0.3-8.8-17.5  C20.4,60.1,20.2,60.2,20.2,60.3z"/>
<g>
	<path fill="#000000" d="M39.8,65.4c-0.5-2.8-2.7-4.7-4.8-4.3c-2.1,0.4-3.4,3-2.9,5.7c0.5,2.8,2.7,4.7,4.8,4.3   C39.1,70.7,40.4,68.2,39.8,65.4z M37.5,64.6c-0.7,0.1-1.4-0.3-1.6-1.1c-0.1-0.7,0.4-1.4,1.1-1.6c0.7-0.1,1.4,0.3,1.6,1.1   C38.7,63.7,38.2,64.5,37.5,64.6z"/>
</g>
<g>
	<path fill="#000000" d="M78.3,58.2c-0.5-2.8-2.7-4.7-4.8-4.3c-2.1,0.4-3.4,3-2.9,5.7c0.5,2.8,2.7,4.7,4.8,4.3   C77.5,63.5,78.8,61,78.3,58.2z M75.9,57.4c-0.7,0.1-1.4-0.3-1.6-1.1c-0.1-0.7,0.3-1.4,1.1-1.6c0.7-0.1,1.4,0.3,1.6,1.1   C77.2,56.6,76.7,57.3,75.9,57.4z"/>
</g>
<path fill="#000000" d="M89.1,55.3"/>
<path fill="#000000" d="M94.4,69.3l-3.5-13.9l-2.2-15.9l1.7-1.2c1.8-1.2,2.2-3.6,1-5.4l-4.2-6c-1.2-1.8-3.6-2.2-5.4-1l-5.4,3.8  c0,0,0,0,0,0l1.2-7.4c0.3-2.2-0.7-4.2-2.4-4.4l-9.4-1.5c-1.7-0.3-3.3,1.3-3.6,3.5l-1.2,7.4c0,0.2,0,0.4,0,0.6l-1.3-4.9  c-0.6-2.2-2.4-3.5-4.1-3L45.7,23c-1,0.3-1.7,1.2-2,2.3c0,0-0.1,0-0.1,0L32.8,21c-1.9-0.8-4.3,0.8-5.4,3.4l-2.1,5.3c0,0,0,0,0,0  L31,34l-5.7-4.3c-1.7-1.3-4.6-0.5-6.5,1.7L7.8,44.1c-1.9,2.2-2.1,5.1-0.4,6.3l5.7,4.3c0.6,0.5,1.4,0.6,2.2,0.6c-0.2,0-0.3,0-0.5,0  l4.1,14.9l1.1,13c0.6,3.2,5.8,4.9,15.5,4.9c0,0,0,0,0,0c6.7,0,15-0.9,23.5-2.4c9.7-1.8,18.6-4.4,25.2-7.2  C91.5,75.3,94.9,72.2,94.4,69.3z M71.5,33.2c-0.1-0.1-0.1-0.1-0.2-0.2l0.4,0.1C71.6,33.1,71.6,33.1,71.5,33.2z M70.4,34.8l3.2,4  c0,0,0.3,1.2-0.6,0.6c0,0-2.8-3.9-4.2-4c0,0-1.8,0-7.5,3.5l6.5-4.9C67.8,34,69,33.1,70.4,34.8z M83.6,27.3c0,0,1.3-0.8,2.6,1l3,4.2  c0,0,0.2,1.2-0.7,0.6c0,0-2.6-4.2-4-4.3c0,0-1.8-0.2-7.8,3.1L83.6,27.3z M74.4,19.2c0,0,1.2,0.2,0.9,2l-0.6,4c0,0-0.5,0.8-0.7,0  c0,0,0.8-3.8,0.1-4.6c0,0-0.9-1.1-6.1-2.5L74.4,19.2z M61.6,30.5c0.4,0.6,1,1.1,1.7,1.2l3.8,0.6c-0.2,0.1-0.5,0.3-0.7,0.4L57,40.1  l-1.4-2.2c-0.3-0.4-0.6-0.8-1-1.1l4.9-1.5C61.2,34.7,62.1,32.6,61.6,30.5z M51.6,38c0,0,2.4-0.6,3.1,3.3c0,0-1.7-2.7-3.4-1.9  c0,0-1.1,0-5.8,2.2C45.5,41.6,49.5,38.4,51.6,38z M56.2,21.4c0,0,1.2-0.3,1.9,2l1.5,5.3c0,0-0.1,1.3-0.7,0.3c0,0-1.2-5-2.2-5.7  c0,0-1.4-0.8-7.1,0.1L56.2,21.4z M48,38.2L40.4,43c-1,0.7-1.7,1.7-1.7,2.9l-0.4-1.7c0-0.1-0.1-0.2-0.1-0.3c1.4-0.4,2.7-1.7,3.4-3.4  l3.3-8.2l0.8,3.1C46,36.8,46.9,37.8,48,38.2z M34.3,43.7c0,0,1.4-0.5,1.9,1.2l1.2,3.9c0,0-0.2,1-0.8,0.4c0,0-0.9-3.8-2-4.1  c0,0-1.5-0.4-8,1.2L34.3,43.7z M26.7,44.9l3.1-3.5l3.4,1.4L26.7,44.9z M42.3,27c0,0,1.9,0.7,1,3.6l-2.2,6.6c0,0-1.1,1.2-1.2-0.2  c0,0,2.4-6.1,1.5-7.7c0,0-1.3-2-9.5-6L42.3,27z M12.6,40.9l7.5-8.5c0,0,1.4-1.5,3.2-0.2l4.1,3.1c0,0,0.4,1.2-0.7,1  c0,0-3.7-3.2-5.3-2.7C21.5,33.6,19.3,34.4,12.6,40.9z M83.1,76c-6.4,2.8-15.2,5.3-24.7,7c-8.3,1.5-16.4,2.4-23,2.4  c-9.1,0-12.7-1.6-12.9-2.7l-1.1-13.1l-4.1-14.8c0,0,0,0-0.1,0c0.9-0.4,1.7-1,2.4-1.8l0.5-0.6l0.9,3.6c0.4,1.6,2.4,2.4,4.4,1.7  l11.3-3.8c2-0.7,3.3-2.5,2.8-4.2l-0.4-1.5l3.7,5.9c1.1,1.8,3.4,2.3,5.2,1.2l10.1-6.3c0.2-0.1,0.4-0.3,0.6-0.4l2,2.5  c1.3,1.7,3.7,1.9,5.4,0.6l9.4-7.4l-0.3,0.3c1.3,1.5,3.5,1.9,5.2,0.7l6-4.2l1.8,14.3l3.6,14.4C91.9,70.6,90.3,72.9,83.1,76z   M15.7,55.3c0.2,0,0.3,0,0.5-0.1C16,55.2,15.8,55.3,15.7,55.3z M16.5,55.1c0.2,0,0.3-0.1,0.5-0.2C16.8,55,16.7,55.1,16.5,55.1z"/>
</svg>