<svg xmlns="http://www.w3.org/2000/svg" xmlns:xlink="http://www.w3.org/1999/xlink" version="1.1" id="Layer_1" x="0px" y="0px" viewBox="0 0 100 100" enable-background="new 0 0 100 100" xml:space="preserve" height="100px" width="100px">
<path fill="#000000" d="M26,50.7c-1.4-0.4-3,1-3.5,3c-0.3,1-0.2,1.9,0,2.7c-2.2-0.8-4.3-0.5-4.7,0.5c-0.4,1,1.2,2.5,3.4,3.3  c2.3,0.8,4.4,0.6,4.7-0.5c0.2-0.5-0.1-1.2-0.7-1.7c1-0.4,1.9-1.5,2.3-2.9C28.2,53,27.4,51,26,50.7z M24.2,57.1  C24.2,57.1,24.2,57,24.2,57.1c-0.3-0.2-0.6-0.3-1-0.5c-0.2-0.2-0.3-0.5-0.3-0.8c0-0.7,0.6-1.3,1.3-1.3c0.7,0,1.3,0.6,1.3,1.3  C25.5,56.5,24.9,57.1,24.2,57.1z M26.2,53.9c-0.3,0-0.5-0.2-0.5-0.5c0-0.3,0.2-0.5,0.5-0.5c0.3,0,0.5,0.2,0.5,0.5  C26.6,53.7,26.4,53.9,26.2,53.9z"/>
<ellipse transform="matrix(0.9855 0.1698 -0.1698 0.9855 11.3343 -4.7952)" fill="#000000" cx="33.7" cy="63.9" rx="2.2" ry="3"/>
<path fill="#000000" d="M82.8,46.3c0,0,2.3-3.1,11.3,2.1c0,0-2.1-7.4-21.1-9.6l0,0C69,32.7,59,26.4,46.4,22.9  c-17.7-4.9-33.8-2.3-36,5.8c-0.8,3,0.4,6.3,3.2,9.5c-3.1,2.7-5,6.9-5.7,10.5c-1.1,5.4-0.3,10.3,2.3,13c3.3,3.3,16.7,7.5,20.8,8.7  c8.3,2.4,19.3,5,25.4,5c0,0,0,0,0,0c1.8,0,3-0.2,3.9-0.7c4.1-2.4,8.3-11.4,8.4-18.2c0-1.5-0.2-2.9-0.6-4c0.8-0.3,1.5-0.7,2.1-1l0,0  c0,0,15.6-2.8,22.2,9.6C92.3,61,95.1,53.3,82.8,46.3z M17.8,35.1c0.2-0.5,0.8-0.6,1.2-0.4c0.4,0.2,0.6,0.8,0.4,1.2  c-0.2,0.5-0.8,0.6-1.2,0.4C17.7,36.1,17.5,35.6,17.8,35.1z M14.2,29.6c0.2-0.5,0.8-0.6,1.2-0.4c0.4,0.2,0.6,0.8,0.4,1.2  c-0.2,0.5-0.8,0.6-1.2,0.4C14.2,30.6,14,30,14.2,29.6z M13.7,33.1c0-0.1,0.2-0.2,0.3-0.2c0.1,0,0.2,0.2,0.2,0.3  c0,0.1-0.5,1.8,1.4,2.3c0.1,0,0.2,0.2,0.2,0.3c0,0.1-0.1,0.2-0.3,0.2c0,0,0,0-0.1,0c-0.7-0.2-1.3-0.6-1.6-1.1  C13.4,34.1,13.7,33.1,13.7,33.1z M66,56.4c-0.1,6.2-4.1,14.3-7.1,16.1c-0.2,0.1-0.8,0.4-2.6,0.4c0,0,0,0,0,0  C45.9,72.9,16,64.2,11.9,60c-2-2-2.6-6.2-1.6-10.7c0.7-3.2,2.3-7,5-9.2c5,4.8,13.3,9.3,23.2,12c10.4,2.9,20.3,3.1,27.2,1.2  C66,54.3,66,55.4,66,56.4z"/>
<path fill="#000000" d="M48.3,63.2c0.6-0.5,1.2-1.4,1.4-2.4c0.5-2-0.2-4-1.6-4.3c-1.4-0.4-3,1-3.5,3c-0.4,1.5-0.1,2.9,0.6,3.7  c-0.9,0.2-1.6,0.6-1.7,1.2c-0.2,1.1,1.6,2.3,3.9,2.7c2.3,0.4,4.4-0.2,4.6-1.3C52.3,64.8,50.6,63.6,48.3,63.2z M48.1,58.9  c0.3,0,0.5,0.2,0.5,0.5c0,0.3-0.2,0.5-0.5,0.5c-0.3,0-0.5-0.2-0.5-0.5C47.6,59.1,47.8,58.9,48.1,58.9z M46.2,60.3  c0.7,0,1.3,0.6,1.3,1.3c0,0.7-0.6,1.3-1.3,1.3c-0.7,0-1.3-0.6-1.3-1.3C44.9,60.9,45.5,60.3,46.2,60.3z"/>
</svg>